# This file uses centimeters as units for non-parametric coordinates.

mtllib coarse_ground.mtl
g default
v -58.219510 -0.000000 58.219510
v -46.575608 -0.000000 58.219510
v -34.930885 0.014525 58.215068
v -23.506465 -1.116700 56.359990
v -11.906370 -2.576224 54.782798
v 0.087495 -2.876834 53.774393
v 11.929662 -0.676627 55.019414
v 23.296514 3.067558 56.056969
v 34.596855 9.307369 53.329824
v 46.186216 11.808220 52.021587
v 53.386874 10.934855 51.647039
v -58.219510 -0.000000 46.575608
v -46.994192 4.568730 47.234160
v -34.921553 4.388805 47.096017
v -23.466512 1.170632 46.288512
v -12.169736 -2.889614 45.748116
v 0.008390 -4.093082 45.738219
v 12.092670 -1.857812 46.196560
v 23.504087 3.161044 46.349851
v 34.584810 9.795869 45.094557
v 46.259606 12.419267 44.390668
v 53.846901 11.268504 44.345518
v -57.944847 0.802470 34.988725
v -47.034383 5.773883 35.317196
v -34.932242 6.580874 35.288741
v -23.207973 3.264988 34.957386
v -12.528405 -2.776759 34.781779
v -0.214354 -5.126698 34.812844
v 12.104659 -3.444685 35.064676
v 23.832299 0.706400 35.227878
v 34.956616 6.477429 34.182817
v 46.477136 8.985508 33.152931
v 54.898531 7.876674 33.263868
v -58.219510 -0.000000 23.287802
v -46.910079 4.397762 23.362995
v -34.995110 5.581514 23.232282
v -23.425989 2.912297 23.133374
v -12.850328 -3.607848 23.104372
v -0.469015 -5.400134 22.988568
v 11.653232 -3.006341 23.140710
v 22.907656 2.520597 23.308965
v 34.891672 3.295203 23.014634
v 46.593622 0.230206 23.285557
v 58.219510 -0.000000 23.287802
v -58.169529 -0.024063 11.647018
v -46.542198 0.907877 11.897456
v -35.127268 2.945108 11.571394
v -23.947506 0.645833 11.383700
v -12.874784 -3.568872 10.935351
v -0.605281 -4.388547 10.886035
v 11.439337 -2.198327 11.112854
v 22.983100 1.968065 11.333477
v 34.902211 2.724058 11.324359
v 46.430195 -0.339141 11.554873
v 58.219510 -0.000000 11.643901
v -56.194290 -0.735418 0.004452
v -46.261313 0.095610 0.051852
v -35.079494 1.376466 -0.158259
v -23.830696 1.268950 -0.515341
v -12.392055 -0.020437 -0.849435
v -0.488508 -1.593836 -1.077267
v 11.480342 -1.671622 -0.842296
v 23.254900 0.538686 -0.441918
v 34.560956 4.599215 -0.080183
v 45.911799 4.240612 0.348582
v 56.584321 1.006098 0.135193
v -56.053971 -0.594591 -11.692103
v -46.272355 0.676134 -11.776043
v -35.274065 3.521356 -11.771302
v -23.884122 6.143540 -11.552202
v -11.949800 6.415354 -11.615089
v 0.008592 4.934652 -11.905131
v 11.563852 0.823080 -12.337653
v 23.412284 0.296477 -12.102520
v 34.789937 3.258679 -11.823377
v 44.986375 7.298401 -11.297340
v 52.818376 6.344436 -11.129384
v -57.489663 -0.131883 -23.308040
v -46.867518 3.039958 -23.362010
v -35.861698 6.893423 -23.430212
v -24.063069 9.605841 -23.540528
v -11.691099 10.080016 -23.655689
v 0.540025 8.174322 -23.709169
v 11.860784 3.358700 -23.663459
v 23.697246 0.459454 -23.566987
v 35.375241 3.356620 -23.647746
v 46.086733 9.046665 -23.472949
v 54.770240 7.806896 -23.290077
v -57.951083 0.479644 -34.951525
v -46.884948 3.053308 -35.152357
v -35.894206 6.976372 -35.659079
v -24.005022 9.624189 -36.074331
v -11.534853 9.976039 -36.191952
v 0.735995 7.793049 -35.927443
v 12.154936 3.498133 -35.288127
v 23.748637 0.002252 -34.972173
v 35.359532 3.689244 -35.401084
v 46.151254 9.665979 -35.909846
v 54.279886 8.219528 -35.673782
v -58.189711 0.052091 -46.576292
v -46.694000 2.111082 -46.710393
v -35.422723 4.162599 -47.194937
v -23.732709 6.379587 -47.753021
v -11.526331 6.610866 -47.773641
v 0.495394 4.611436 -47.386125
v 11.854949 1.376786 -46.766710
v 23.395271 -0.551452 -46.520898
v 34.698131 4.168688 -47.230110
v 46.478659 5.874002 -47.587779
v 56.312348 3.958196 -47.255342
v -58.219510 0.000000 -58.219510
v -46.575830 0.040025 -58.196999
v -34.968515 0.949070 -57.613673
v -23.393942 1.783550 -57.006327
v -11.563383 2.337459 -56.526897
v 0.133841 1.128139 -57.034785
v 11.643905 0.000000 -58.219510
v 23.287802 0.000000 -58.219510
v 34.931707 0.000000 -58.219510
v 46.575612 0.000000 -58.219510
v 58.219510 0.000000 -58.219510
vt 0.000000 0.000000
vt 0.100000 0.000000
vt 0.200000 0.000000
vt 0.300000 0.000000
vt 0.400000 0.000000
vt 0.500000 0.000000
vt 0.600000 0.000000
vt 0.700000 0.000000
vt 0.800000 0.000000
vt 0.900000 0.000000
vt 1.000000 0.000000
vt 0.000000 0.100000
vt 0.100000 0.100000
vt 0.200000 0.100000
vt 0.300000 0.100000
vt 0.400000 0.100000
vt 0.500000 0.100000
vt 0.600000 0.100000
vt 0.700000 0.100000
vt 0.800000 0.100000
vt 0.900000 0.100000
vt 1.000000 0.100000
vt 0.000000 0.200000
vt 0.100000 0.200000
vt 0.200000 0.200000
vt 0.300000 0.200000
vt 0.400000 0.200000
vt 0.500000 0.200000
vt 0.600000 0.200000
vt 0.700000 0.200000
vt 0.800000 0.200000
vt 0.900000 0.200000
vt 1.000000 0.200000
vt 0.000000 0.300000
vt 0.100000 0.300000
vt 0.200000 0.300000
vt 0.300000 0.300000
vt 0.400000 0.300000
vt 0.500000 0.300000
vt 0.600000 0.300000
vt 0.700000 0.300000
vt 0.800000 0.300000
vt 0.900000 0.300000
vt 1.000000 0.300000
vt 0.000000 0.400000
vt 0.100000 0.400000
vt 0.200000 0.400000
vt 0.300000 0.400000
vt 0.400000 0.400000
vt 0.500000 0.400000
vt 0.600000 0.400000
vt 0.700000 0.400000
vt 0.800000 0.400000
vt 0.900000 0.400000
vt 1.000000 0.400000
vt 0.000000 0.500000
vt 0.100000 0.500000
vt 0.200000 0.500000
vt 0.300000 0.500000
vt 0.400000 0.500000
vt 0.500000 0.500000
vt 0.600000 0.500000
vt 0.700000 0.500000
vt 0.800000 0.500000
vt 0.900000 0.500000
vt 1.000000 0.500000
vt 0.000000 0.600000
vt 0.100000 0.600000
vt 0.200000 0.600000
vt 0.300000 0.600000
vt 0.400000 0.600000
vt 0.500000 0.600000
vt 0.600000 0.600000
vt 0.700000 0.600000
vt 0.800000 0.600000
vt 0.900000 0.600000
vt 1.000000 0.600000
vt 0.000000 0.700000
vt 0.100000 0.700000
vt 0.200000 0.700000
vt 0.300000 0.700000
vt 0.400000 0.700000
vt 0.500000 0.700000
vt 0.600000 0.700000
vt 0.700000 0.700000
vt 0.800000 0.700000
vt 0.900000 0.700000
vt 1.000000 0.700000
vt 0.000000 0.800000
vt 0.100000 0.800000
vt 0.200000 0.800000
vt 0.300000 0.800000
vt 0.400000 0.800000
vt 0.500000 0.800000
vt 0.600000 0.800000
vt 0.700000 0.800000
vt 0.800000 0.800000
vt 0.900000 0.800000
vt 1.000000 0.800000
vt 0.000000 0.900000
vt 0.100000 0.900000
vt 0.200000 0.900000
vt 0.300000 0.900000
vt 0.400000 0.900000
vt 0.500000 0.900000
vt 0.600000 0.900000
vt 0.700000 0.900000
vt 0.800000 0.900000
vt 0.900000 0.900000
vt 1.000000 0.900000
vt 0.000000 1.000000
vt 0.100000 1.000000
vt 0.200000 1.000000
vt 0.300000 1.000000
vt 0.400000 1.000000
vt 0.500000 1.000000
vt 0.600000 1.000000
vt 0.700000 1.000000
vt 0.800000 1.000000
vt 0.900000 1.000000
vt 1.000000 1.000000
vn -0.197512 0.960197 0.197512
vn -0.090456 0.951798 0.293084
vn -0.154635 0.967488 0.200136
vn -0.304382 0.943093 0.133896
vn 0.102550 0.934997 0.339505
vn 0.115442 0.961778 0.248306
vn 0.225485 0.951230 0.210518
vn 0.291322 0.941938 0.166983
vn 0.160034 0.987034 0.012369
vn 0.227781 0.973597 0.015009
vn -0.058693 0.991501 -0.116110
vn -0.028698 0.994949 -0.096188
vn -0.275209 0.956503 -0.096759
vn -0.265384 0.955851 -0.126172
vn -0.423647 0.905566 -0.021738
vn -0.432608 0.893598 -0.119720
vn -0.386266 0.921489 0.040709
vn -0.369227 0.919453 -0.135194
vn -0.091068 0.993524 0.067943
vn -0.083830 0.984493 -0.154095
vn 0.137182 0.988249 0.067422
vn 0.137824 0.976666 -0.164705
vn -0.223810 0.974581 0.010018
vn -0.392815 0.919601 -0.005527
vn 0.103350 0.993789 0.041264
vn 0.365137 0.930229 0.036731
vn 0.315763 0.948681 -0.017233
vn -0.003228 0.998824 -0.048369
vn -0.271609 0.961679 -0.037434
vn -0.386422 0.918119 -0.087953
vn -0.258848 0.925872 -0.275241
vn -0.021221 0.897230 -0.441053
vn 0.085376 0.850457 -0.519070
vn -0.209343 0.966805 -0.146503
vn -0.305232 0.945088 -0.116795
vn 0.059138 0.986168 -0.154842
vn 0.355057 0.929115 -0.103342
vn 0.307768 0.950659 -0.039067
vn -0.019542 0.999597 0.020584
vn -0.283969 0.957409 0.052255
vn -0.286214 0.958117 0.009644
vn -0.019348 0.985818 -0.166700
vn 0.083857 0.948340 -0.305973
vn 0.022865 0.950501 -0.309879
vn -0.148436 0.977787 -0.147983
vn -0.157141 0.980875 -0.114851
vn 0.006856 0.987694 -0.156248
vn 0.257973 0.965173 -0.043478
vn 0.222233 0.970107 0.097488
vn -0.016543 0.991407 0.129764
vn -0.234789 0.970909 0.046996
vn -0.235043 0.971884 -0.014016
vn 0.033669 0.998189 0.049853
vn 0.131624 0.986205 0.100376
vn 0.056710 0.994048 0.093022
vn -0.130363 0.991426 -0.008963
vn -0.092015 0.995418 -0.026017
vn -0.082305 0.994276 0.068131
vn 0.074717 0.969022 0.235400
vn 0.125745 0.924149 0.360745
vn 0.075030 0.941919 0.327352
vn -0.066215 0.987137 0.145522
vn -0.211262 0.977429 -0.000175
vn -0.138885 0.987632 0.072764
vn 0.080936 0.971358 0.223414
vn 0.158005 0.954476 0.253002
vn -0.199052 0.970473 0.136237
vn -0.160954 0.983207 0.086014
vn -0.197831 0.951403 0.235999
vn -0.075643 0.940232 0.332026
vn 0.069301 0.919918 0.385937
vn 0.196341 0.913905 0.355286
vn 0.153897 0.964592 0.214193
vn -0.120322 0.992019 0.037692
vn -0.288408 0.957456 0.009912
vn -0.107027 0.985306 0.133104
vn 0.175018 0.956946 0.231567
vn -0.274017 0.956042 0.104397
vn -0.234856 0.968747 0.079821
vn -0.264078 0.955402 0.132170
vn -0.124062 0.982389 0.139713
vn 0.060520 0.988987 0.135063
vn 0.257530 0.958160 0.124934
vn 0.290233 0.952741 0.089720
vn -0.031090 0.999159 0.026729
vn -0.359441 0.932995 0.017950
vn -0.202766 0.977171 0.063427
vn 0.142685 0.985643 0.090266
vn -0.265501 0.963037 -0.045484
vn -0.228535 0.973437 -0.013848
vn -0.255733 0.961462 -0.100951
vn -0.120563 0.984058 -0.130745
vn 0.069447 0.987639 -0.140522
vn 0.256312 0.958135 -0.127595
vn 0.298755 0.950375 -0.086791
vn -0.037838 0.998823 -0.030335
vn -0.359227 0.933019 -0.020784
vn -0.161512 0.982784 -0.089713
vn 0.174194 0.973732 -0.146638
vn -0.171582 0.975638 -0.136711
vn -0.145891 0.986483 -0.074609
vn -0.180606 0.950097 -0.254357
vn -0.094464 0.939312 -0.329803
vn 0.062957 0.939127 -0.337754
vn 0.201068 0.940396 -0.274275
vn 0.205384 0.967027 -0.150584
vn -0.061013 0.995291 -0.075315
vn -0.241222 0.954288 -0.176485
vn -0.046608 0.946372 -0.319699
vn 0.127229 0.921970 -0.365766
vn -0.106806 0.981055 -0.161628
vn -0.090400 0.991705 -0.091377
vn -0.122251 0.945727 -0.301091
vn -0.072397 0.911113 -0.405748
vn 0.050588 0.907900 -0.416122
vn 0.151916 0.941057 -0.302213
vn 0.128181 0.983683 -0.126244
vn -0.060053 0.993494 -0.096762
vn -0.137412 0.945297 -0.295858
vn 0.004322 0.909721 -0.415198
vn 0.087427 0.909664 -0.406039
s 1
g pPlane1
usemtl initialShadingGroup
f 1/1/1 2/2/2 13/13/3 12/12/4
f 2/2/2 3/3/5 14/14/6 13/13/3
f 3/3/5 4/4/7 15/15/8 14/14/6
f 4/4/7 5/5/9 16/16/10 15/15/8
f 5/5/9 6/6/11 17/17/12 16/16/10
f 6/6/11 7/7/13 18/18/14 17/17/12
f 7/7/13 8/8/15 19/19/16 18/18/14
f 8/8/15 9/9/17 20/20/18 19/19/16
f 9/9/17 10/10/19 21/21/20 20/20/18
f 10/10/19 11/11/21 22/22/22 21/21/20
f 12/12/4 13/13/3 24/24/23 23/23/24
f 13/13/3 14/14/6 25/25/25 24/24/23
f 14/14/6 15/15/8 26/26/26 25/25/25
f 15/15/8 16/16/10 27/27/27 26/26/26
f 16/16/10 17/17/12 28/28/28 27/27/27
f 17/17/12 18/18/14 29/29/29 28/28/28
f 18/18/14 19/19/16 30/30/30 29/29/29
f 19/19/16 20/20/18 31/31/31 30/30/30
f 20/20/18 21/21/20 32/32/32 31/31/31
f 21/21/20 22/22/22 33/33/33 32/32/32
f 23/23/24 24/24/23 35/35/34 34/34/35
f 24/24/23 25/25/25 36/36/36 35/35/34
f 25/25/25 26/26/26 37/37/37 36/36/36
f 26/26/26 27/27/27 38/38/38 37/37/37
f 27/27/27 28/28/28 39/39/39 38/38/38
f 28/28/28 29/29/29 40/40/40 39/39/39
f 29/29/29 30/30/30 41/41/41 40/40/40
f 30/30/30 31/31/31 42/42/42 41/41/41
f 31/31/31 32/32/32 43/43/43 42/42/42
f 32/32/32 33/33/33 44/44/44 43/43/43
f 34/34/35 35/35/34 46/46/45 45/45/46
f 35/35/34 36/36/36 47/47/47 46/46/45
f 36/36/36 37/37/37 48/48/48 47/47/47
f 37/37/37 38/38/38 49/49/49 48/48/48
f 38/38/38 39/39/39 50/50/50 49/49/49
f 39/39/39 40/40/40 51/51/51 50/50/50
f 40/40/40 41/41/41 52/52/52 51/51/51
f 41/41/41 42/42/42 53/53/53 52/52/52
f 42/42/42 43/43/43 54/54/54 53/53/53
f 43/43/43 44/44/44 55/55/55 54/54/54
f 45/45/46 46/46/45 57/57/56 56/56/57
f 46/46/45 47/47/47 58/58/58 57/57/56
f 47/47/47 48/48/48 59/59/59 58/58/58
f 48/48/48 49/49/49 60/60/60 59/59/59
f 49/49/49 50/50/50 61/61/61 60/60/60
f 50/50/50 51/51/51 62/62/62 61/61/61
f 51/51/51 52/52/52 63/63/63 62/62/62
f 52/52/52 53/53/53 64/64/64 63/63/63
f 53/53/53 54/54/54 65/65/65 64/64/64
f 54/54/54 55/55/55 66/66/66 65/65/65
f 56/56/57 57/57/56 68/68/67 67/67/68
f 57/57/56 58/58/58 69/69/69 68/68/67
f 58/58/58 59/59/59 70/70/70 69/69/69
f 59/59/59 60/60/60 71/71/71 70/70/70
f 60/60/60 61/61/61 72/72/72 71/71/71
f 61/61/61 62/62/62 73/73/73 72/72/72
f 62/62/62 63/63/63 74/74/74 73/73/73
f 63/63/63 64/64/64 75/75/75 74/74/74
f 64/64/64 65/65/65 76/76/76 75/75/75
f 65/65/65 66/66/66 77/77/77 76/76/76
f 67/67/68 68/68/67 79/79/78 78/78/79
f 68/68/67 69/69/69 80/80/80 79/79/78
f 69/69/69 70/70/70 81/81/81 80/80/80
f 70/70/70 71/71/71 82/82/82 81/81/81
f 71/71/71 72/72/72 83/83/83 82/82/82
f 72/72/72 73/73/73 84/84/84 83/83/83
f 73/73/73 74/74/74 85/85/85 84/84/84
f 74/74/74 75/75/75 86/86/86 85/85/85
f 75/75/75 76/76/76 87/87/87 86/86/86
f 76/76/76 77/77/77 88/88/88 87/87/87
f 78/78/79 79/79/78 90/90/89 89/89/90
f 79/79/78 80/80/80 91/91/91 90/90/89
f 80/80/80 81/81/81 92/92/92 91/91/91
f 81/81/81 82/82/82 93/93/93 92/92/92
f 82/82/82 83/83/83 94/94/94 93/93/93
f 83/83/83 84/84/84 95/95/95 94/94/94
f 84/84/84 85/85/85 96/96/96 95/95/95
f 85/85/85 86/86/86 97/97/97 96/96/96
f 86/86/86 87/87/87 98/98/98 97/97/97
f 87/87/87 88/88/88 99/99/99 98/98/98
f 89/89/90 90/90/89 101/101/100 100/100/101
f 90/90/89 91/91/91 102/102/102 101/101/100
f 91/91/91 92/92/92 103/103/103 102/102/102
f 92/92/92 93/93/93 104/104/104 103/103/103
f 93/93/93 94/94/94 105/105/105 104/104/104
f 94/94/94 95/95/95 106/106/106 105/105/105
f 95/95/95 96/96/96 107/107/107 106/106/106
f 96/96/96 97/97/97 108/108/108 107/107/107
f 97/97/97 98/98/98 109/109/109 108/108/108
f 98/98/98 99/99/99 110/110/110 109/109/109
f 100/100/101 101/101/100 112/112/111 111/111/112
f 101/101/100 102/102/102 113/113/113 112/112/111
f 102/102/102 103/103/103 114/114/114 113/113/113
f 103/103/103 104/104/104 115/115/115 114/114/114
f 104/104/104 105/105/105 116/116/116 115/115/115
f 105/105/105 106/106/106 117/117/117 116/116/116
f 106/106/106 107/107/107 118/118/118 117/117/117
f 107/107/107 108/108/108 119/119/119 118/118/118
f 108/108/108 109/109/109 120/120/120 119/119/119
f 109/109/109 110/110/110 121/121/121 120/120/120
